<?xml version="1.0" standalone="no"?>
<!DOCTYPE svg PUBLIC "-//W3C//DTD SVG 20010904//EN"
 "http://www.w3.org/TR/2001/REC-SVG-20010904/DTD/svg10.dtd">
<svg version="1.0" xmlns="http://www.w3.org/2000/svg"
 width="16.000000pt" height="16.000000pt" viewBox="0 0 16.000000 16.000000"
 preserveAspectRatio="xMidYMid meet">
<metadata>
Created by potrace 1.11, written by Peter Selinger 2001-2013
</metadata>
<g transform="translate(0.000000,16.000000) scale(0.005333,-0.005333)"
fill="#000000" stroke="none">
<path d="M1340 2740 c-309 -44 -576 -182 -798 -414 -173 -181 -285 -396 -333
-641 -19 -93 -19 -387 0 -480 49 -246 160 -460 335 -642 198 -208 419 -333
697 -395 89 -19 132 -23 294 -23 206 0 314 17 469 72 312 111 597 363 746 660
91 183 125 336 125 568 0 232 -34 385 -125 568 -120 238 -333 456 -569 580
-201 107 -361 146 -606 152 -93 2 -199 0 -235 -5z m480 -74 c263 -61 485 -187
667 -380 165 -174 277 -391 324 -631 18 -91 18 -329 0 -420 -76 -385 -322
-712 -670 -893 -205 -107 -371 -147 -606 -147 -235 0 -401 40 -606 147 -348
181 -594 508 -670 893 -18 91 -18 329 0 420 84 426 374 777 780 946 84 35 234
75 331 89 111 15 331 4 450 -24z"/>
<path d="M1365 2600 c-484 -76 -857 -409 -982 -877 -24 -89 -26 -115 -26 -278
0 -163 2 -189 26 -278 90 -337 313 -610 625 -766 76 -38 211 -83 307 -102 92
-18 348 -18 440 0 459 91 812 419 932 868 24 89 26 115 26 278 0 163 -2 189
-26 278 -56 208 -159 390 -307 537 -165 165 -367 275 -602 326 -86 19 -328 27
-413 14z m-187 -962 c97 -275 136 -393 147 -443 6 -27 9 -22 30 50 13 44 69
209 126 368 l102 287 261 0 c276 0 357 -9 432 -48 92 -48 138 -134 139 -262 0
-68 -5 -95 -23 -135 -61 -134 -201 -205 -403 -205 l-79 0 0 -170 0 -170 -116
0 -116 0 4 401 c3 343 1 395 -10 353 -7 -27 -68 -208 -135 -402 l-122 -352
-93 2 -94 3 -123 342 c-68 188 -129 367 -135 398 -6 30 -12 55 -13 55 -1 0 0
-180 1 -400 l4 -400 -101 0 -101 0 0 495 0 495 163 0 162 0 93 -262z"/>
<path d="M1910 1575 l0 -157 89 4 c98 5 129 18 161 71 26 43 26 121 0 164 -28
47 -73 66 -167 71 l-83 5 0 -158z"/>
</g>
</svg>
